<svg xmlns="http://www.w3.org/2000/svg" width="16.34" height="15.48" viewBox="0 0 16.34 15.48">
  <g id="check" transform="translate(-352 -298)">
    <g id="check-2" data-name="check" transform="translate(352 298)">
      <path id="Path_26992" data-name="Path 26992" d="M14.34,14.48H2a1,1,0,0,1-1-1V2A1,1,0,0,1,2,1H14.34a1,1,0,0,1,1,1V13.48A1,1,0,0,1,14.34,14.48Z" fill="rgba(255,255,255,0)"/>
      <path id="Path_26993" data-name="Path 26993" d="M2,2V13.48H14.34V2H2M2,0H14.34a2,2,0,0,1,2,2V13.48a2,2,0,0,1-2,2H2a2,2,0,0,1-2-2V2A2,2,0,0,1,2,0Z" fill="#0065c9"/>
    </g>
  </g>
</svg>
