<svg xmlns="http://www.w3.org/2000/svg" width="46" height="46" viewBox="0 0 46 46">
  <g id="Group_243" data-name="Group 243" transform="translate(-902 -2910)">
    <g id="Chapter-icon" transform="translate(445 2577)">
      <circle id="Ellipse_58" data-name="Ellipse 58" cx="23" cy="23" r="23" transform="translate(457 333)" fill="#d82533"/>
      <g id="question-icon" transform="translate(421 341)">
        <path id="Icon_awesome-clipboard" data-name="Icon awesome-clipboard" d="M21.448,6.563V27.187A2.749,2.749,0,0,1,18.767,30H2.681A2.749,2.749,0,0,1,0,27.187V6.563A2.749,2.749,0,0,1,2.681,3.75H7.149A3.67,3.67,0,0,1,10.724,0,3.67,3.67,0,0,1,14.3,3.75h4.468A2.749,2.749,0,0,1,21.448,6.563ZM10.724,2.344A1.375,1.375,0,0,0,9.384,3.75a1.342,1.342,0,1,0,2.681,0,1.375,1.375,0,0,0-1.341-1.406m5.362,6.68V7.852a.344.344,0,0,0-.335-.352H5.7a.344.344,0,0,0-.335.352V9.023a.344.344,0,0,0,.335.352H15.751A.344.344,0,0,0,16.086,9.023Z" transform="translate(48)" fill="#fff"/>
        <path id="Icon_awesome-question-circle" data-name="Icon awesome-question-circle" d="M3.485,2.024A1.461,1.461,0,1,1,2.024.563,1.461,1.461,0,0,1,3.485,2.024ZM2.063,1.046a.763.763,0,0,0-.687.376.071.071,0,0,0,.016.1l.2.155a.071.071,0,0,0,.1-.013c.105-.134.177-.211.338-.211.12,0,.269.077.269.194,0,.088-.073.134-.192.2-.139.078-.322.174-.322.416v.024a.071.071,0,0,0,.071.071h.33a.071.071,0,0,0,.071-.071V2.275c0-.168.49-.175.49-.629A.672.672,0,0,0,2.063,1.046ZM2.024,2.507a.271.271,0,1,0,.271.271A.271.271,0,0,0,2.024,2.507Z" transform="translate(62.68 12.004)" fill="#d82533"/>
        <path id="Icon_awesome-question-circle-2" data-name="Icon awesome-question-circle" d="M3.485,2.024A1.461,1.461,0,1,1,2.024.563,1.461,1.461,0,0,1,3.485,2.024ZM2.063,1.046a.763.763,0,0,0-.687.376.071.071,0,0,0,.016.1l.2.155a.071.071,0,0,0,.1-.013c.105-.134.177-.211.338-.211.12,0,.269.077.269.194,0,.088-.073.134-.192.2-.139.078-.322.174-.322.416v.024a.071.071,0,0,0,.071.071h.33a.071.071,0,0,0,.071-.071V2.275c0-.168.49-.175.49-.629A.672.672,0,0,0,2.063,1.046ZM2.024,2.507a.271.271,0,1,0,.271.271A.271.271,0,0,0,2.024,2.507Z" transform="translate(62.68 17.031)" fill="#d82533"/>
        <path id="Icon_awesome-question-circle-3" data-name="Icon awesome-question-circle" d="M3.485,2.024A1.461,1.461,0,1,1,2.024.563,1.461,1.461,0,0,1,3.485,2.024ZM2.063,1.046a.763.763,0,0,0-.687.376.071.071,0,0,0,.016.1l.2.155a.071.071,0,0,0,.1-.013c.105-.134.177-.211.338-.211.12,0,.269.077.269.194,0,.088-.073.134-.192.2-.139.078-.322.174-.322.416v.024a.071.071,0,0,0,.071.071h.33a.071.071,0,0,0,.071-.071V2.275c0-.168.49-.175.49-.629A.672.672,0,0,0,2.063,1.046ZM2.024,2.507a.271.271,0,1,0,.271.271A.271.271,0,0,0,2.024,2.507Z" transform="translate(62.68 22.288)" fill="#d82533"/>
        <rect id="Rectangle_89" data-name="Rectangle 89" width="11" height="2" rx="0.5" transform="translate(51.224 12.947)" fill="#d82533"/>
        <rect id="Rectangle_90" data-name="Rectangle 90" width="11" height="2" rx="0.5" transform="translate(51.224 18.211)" fill="#d82533"/>
        <rect id="Rectangle_91" data-name="Rectangle 91" width="11" height="2" rx="0.5" transform="translate(51.224 23.474)" fill="#d82533"/>
      </g>
    </g>
  </g>
</svg>
