<svg xmlns="http://www.w3.org/2000/svg" width="46" height="46" viewBox="0 0 46 46">
  <g id="Group_246" data-name="Group 246" transform="translate(-1069 -2908)">
    <path id="Path_697" data-name="Path 697" d="M23,0A23,23,0,1,1,0,23,23,23,0,0,1,23,0Z" transform="translate(1069 2908)" fill="#d82533"/>
    <g id="Group_242" data-name="Group 242" transform="translate(-1)">
      <rect id="Rectangle_1418" data-name="Rectangle 1418" width="21" height="30" transform="translate(1082 2917)" fill="rgba(255,216,216,0.73)"/>
      <rect id="Rectangle_1417" data-name="Rectangle 1417" width="21" height="30" transform="translate(1083 2916)" fill="#fff"/>
    </g>
    <g id="Rectangle_1419" data-name="Rectangle 1419" transform="translate(1101 2915)" fill="#d82533" stroke="#d82533" stroke-width="1">
      <rect width="3" height="3" stroke="none"/>
      <rect x="0.5" y="0.5" width="2" height="2" fill="none"/>
    </g>
    <g id="Rectangle_1420" data-name="Rectangle 1420" transform="translate(1084 2918)" fill="#d82533" stroke="#d82533" stroke-width="1">
      <rect width="16" height="1" stroke="none"/>
      <rect x="0.5" y="0.5" width="15" fill="none"/>
    </g>
    <g id="Rectangle_1421" data-name="Rectangle 1421" transform="translate(1086 2920)" fill="#d82533" stroke="#d82533" stroke-width="1">
      <rect width="12" height="1" stroke="none"/>
      <rect x="0.5" y="0.5" width="11" fill="none"/>
    </g>
    <g id="Rectangle_1428" data-name="Rectangle 1428" transform="translate(1088 2924)" fill="#6f6f6f" stroke="#fa9d9d" stroke-width="1">
      <rect width="12" height="1" stroke="none"/>
      <rect x="0.5" y="0.5" width="11" fill="none"/>
    </g>
    <g id="Rectangle_1431" data-name="Rectangle 1431" transform="translate(1088 2929)" fill="#6f6f6f" stroke="#fa9d9d" stroke-width="1">
      <rect width="12" height="1" stroke="none"/>
      <rect x="0.5" y="0.5" width="11" fill="none"/>
    </g>
    <g id="Rectangle_1433" data-name="Rectangle 1433" transform="translate(1088 2934)" fill="#6f6f6f" stroke="#fa9d9d" stroke-width="1">
      <rect width="12" height="1" stroke="none"/>
      <rect x="0.5" y="0.5" width="11" fill="none"/>
    </g>
    <g id="Rectangle_1435" data-name="Rectangle 1435" transform="translate(1088 2939)" fill="#6f6f6f" stroke="#fa9d9d" stroke-width="1">
      <rect width="12" height="1" stroke="none"/>
      <rect x="0.5" y="0.5" width="11" fill="none"/>
    </g>
    <g id="Rectangle_1429" data-name="Rectangle 1429" transform="translate(1088 2925)" fill="#6f6f6f" stroke="#fa9d9d" stroke-width="1">
      <rect width="7" height="1" stroke="none"/>
      <rect x="0.5" y="0.5" width="6" fill="none"/>
    </g>
    <g id="Rectangle_1430" data-name="Rectangle 1430" transform="translate(1088 2930)" fill="#6f6f6f" stroke="#fa9d9d" stroke-width="1">
      <rect width="5" height="1" stroke="none"/>
      <rect x="0.5" y="0.5" width="4" fill="none"/>
    </g>
    <g id="Rectangle_1432" data-name="Rectangle 1432" transform="translate(1088 2935)" fill="#6f6f6f" stroke="#fa9d9d" stroke-width="1">
      <rect width="10" height="1" stroke="none"/>
      <rect x="0.5" y="0.5" width="9" fill="none"/>
    </g>
    <g id="Rectangle_1434" data-name="Rectangle 1434" transform="translate(1088 2940)" fill="#6f6f6f" stroke="#fa9d9d" stroke-width="1">
      <rect width="6" height="1" stroke="none"/>
      <rect x="0.5" y="0.5" width="5" fill="none"/>
    </g>
    <g id="Rectangle_1423" data-name="Rectangle 1423" transform="translate(1084 2924)" fill="#d82533" stroke="#d82533" stroke-width="1">
      <rect width="2" height="2" stroke="none"/>
      <rect x="0.5" y="0.5" width="1" height="1" fill="none"/>
    </g>
    <g id="Rectangle_1424" data-name="Rectangle 1424" transform="translate(1084 2929)" fill="#d82533" stroke="#d82533" stroke-width="1">
      <rect width="2" height="2" stroke="none"/>
      <rect x="0.5" y="0.5" width="1" height="1" fill="none"/>
    </g>
    <g id="Rectangle_1426" data-name="Rectangle 1426" transform="translate(1084 2934)" fill="#d82533" stroke="#d82533" stroke-width="1">
      <rect width="2" height="2" stroke="none"/>
      <rect x="0.5" y="0.5" width="1" height="1" fill="none"/>
    </g>
    <g id="Rectangle_1427" data-name="Rectangle 1427" transform="translate(1084 2939)" fill="#d82533" stroke="#d82533" stroke-width="1">
      <rect width="2" height="2" stroke="none"/>
      <rect x="0.5" y="0.5" width="1" height="1" fill="none"/>
    </g>
  </g>
</svg>
